<svg width="70" height="70" viewBox="0 0 70 70" fill="none" xmlns="http://www.w3.org/2000/svg">
<path d="M52.4168 59.5004H17.5846C15.7983 59.5774 14.0236 59.1776 12.4426 58.3423C10.8617 57.5071 9.53146 56.2664 8.5882 54.7477C7.64493 53.2287 7.12262 51.486 7.07488 49.6987C7.02717 47.9112 7.45576 46.1436 8.31662 44.5764L25.7326 14.3084C26.6981 12.7146 28.0584 11.3968 29.6819 10.4821C31.3053 9.56748 33.1371 9.08691 35.0005 9.08691C36.8639 9.08691 38.6959 9.56748 40.3194 10.4821C41.9428 11.3968 43.3033 12.7146 44.2688 14.3084L61.6848 44.5764C62.5455 46.1436 62.9742 47.9112 62.9263 49.6987C62.8787 51.486 62.3565 53.2287 61.4132 54.7477C60.4698 56.2664 59.1393 57.5071 57.5584 58.3423C55.9775 59.1776 54.2029 59.5774 52.4168 59.5004Z" stroke="#FFC65D" stroke-width="1.5" stroke-linecap="round" stroke-linejoin="round"/>
<path d="M31.8662 48.0199C31.8662 47.6058 31.9483 47.1956 32.1076 46.8134C32.2669 46.4309 32.5004 46.084 32.7947 45.7925C33.0887 45.501 33.4378 45.2706 33.8214 45.1146C34.2053 44.9586 34.6158 44.8802 35.0302 44.8839C35.6412 44.8951 36.2353 45.0858 36.7385 45.4327C37.2414 45.7796 37.6311 46.2674 37.8588 46.8344C38.0861 47.4016 38.1413 48.0232 38.0175 48.6216C37.8935 49.22 37.5958 49.7685 37.1618 50.1988C36.7278 50.6289 36.1765 50.9215 35.577 51.0402C34.9776 51.159 34.3565 51.0982 33.7915 50.8655C33.2262 50.6331 32.7423 50.2392 32.3999 49.7329C32.0574 49.227 31.8718 48.6311 31.8662 48.0199ZM32.8742 40.3759L32.4822 25.7599C32.445 25.4086 32.4819 25.0533 32.5911 24.7173C32.7001 24.3812 32.8784 24.0718 33.1147 23.8091C33.3511 23.5465 33.64 23.3365 33.9626 23.1927C34.2854 23.0489 34.6349 22.9746 34.9882 22.9746C35.3416 22.9746 35.691 23.0489 36.0136 23.1927C36.3364 23.3365 36.6251 23.5465 36.8614 23.8091C37.0977 24.0718 37.2764 24.3812 37.3853 24.7173C37.4942 25.0533 37.5314 25.4086 37.4942 25.7599L37.1302 40.3759C37.1302 40.9401 36.9059 41.4816 36.5069 41.8806C36.1076 42.2796 35.5664 42.5039 35.0022 42.5039C34.4377 42.5039 33.8965 42.2796 33.4975 41.8806C33.0985 41.4816 32.8742 40.9401 32.8742 40.3759Z" fill="#FFC65D"/>
</svg>
